<svg width="85" height="85" viewBox="0 0 85 85" fill="none" xmlns="http://www.w3.org/2000/svg">
<path d="M42.5 0L79.3061 21.25V63.75L42.5 85L5.69392 63.75V21.25L42.5 0Z" fill="#80B5E4"/>
<path d="M46.6106 22.7311L57.6969 28.6715C59.5322 26.8809 62.5861 26.8075 64.5175 28.509C64.8428 28.8028 65.1326 29.1356 65.3602 29.5012C66.6849 31.6417 65.8877 34.376 63.5686 35.6041C63.1827 35.8072 62.7614 35.9697 62.3131 36.0682V47.9412C64.8933 48.5115 66.4826 50.9036 65.8675 53.2957C65.7613 53.7192 65.5776 54.1254 65.3501 54.5004C64.0153 56.6331 61.076 57.3644 58.7671 56.1285C58.3289 55.9003 57.9244 55.591 57.5907 55.241L46.5651 61.1408C47.3994 63.4767 46.0292 65.9985 43.5096 66.7719C43.0175 66.9266 42.5085 67 41.9995 67C39.3485 67 37.1895 65.0141 37.1895 62.5486C37.1895 62.1252 37.2603 61.6939 37.3918 61.2783L26.2971 55.3457C24.4617 57.1284 21.4163 57.2019 19.495 55.4925C17.5821 53.791 17.5114 50.9755 19.3366 49.1943C19.977 48.5756 20.7944 48.1365 21.6893 47.9334V36.0603C19.1091 35.49 17.5114 33.0823 18.1349 30.6808C18.2411 30.2652 18.4164 29.8668 18.6439 29.5012C19.9686 27.3684 22.918 26.6372 25.2185 27.8731C25.6128 28.084 25.9819 28.345 26.2988 28.6543L37.3934 22.7217C36.6384 20.3624 38.0962 17.8797 40.6327 17.1875C41.0709 17.0578 41.536 17 42.0029 17C44.6539 17 46.8129 18.9859 46.8129 21.4436C46.8129 21.8827 46.7421 22.3139 46.6106 22.7295V22.7311ZM45.4528 24.5623C45.409 24.6029 45.3736 24.6435 45.3213 24.6841L59.8406 47.9912C59.9013 47.9756 59.9721 47.9584 60.0243 47.9428V36.0541C57.4525 35.4682 55.8902 33.0511 56.5306 30.6668C56.539 30.6183 56.5576 30.5605 56.566 30.5121L45.4528 24.5623ZM38.676 24.6841L38.5445 24.5623L27.4313 30.5027C28.1695 32.862 26.6932 35.3291 24.1483 36.0119C24.0876 36.0275 24.0337 36.0369 23.973 36.0525V47.9412L24.1668 47.9897L38.6861 24.6826L38.676 24.6841ZM43.3461 25.7419C42.468 25.97 41.5377 25.97 40.6681 25.7419L26.1488 49.049C26.8078 49.6349 27.2729 50.3911 27.5004 51.2224H56.5121C56.7312 50.3927 57.1963 49.6349 57.8637 49.0412L43.3461 25.7419ZM45.5573 59.5455L56.5997 53.6301C56.5643 53.5317 56.539 53.4348 56.5121 53.3364H27.492L27.4398 53.5067L38.5445 59.4471C39.4142 58.6096 40.6428 58.0878 42.0029 58.0878C43.4169 58.0878 44.6809 58.6503 45.5573 59.5455Z" fill="black"/>
</svg>
